<svg width="32" height="14" viewBox="0 0 32 14" fill="none" xmlns="http://www.w3.org/2000/svg">
<path d="M13.7 7C13.7 10.2683 10.9035 13 7.35 13C3.79645 13 1 10.2683 1 7C1 3.73171 3.79645 1 7.35 1C10.9035 1 13.7 3.73171 13.7 7Z" stroke="#00D2E5" stroke-width="2"/>
<path d="M13.7 7C13.7 10.2683 10.9035 13 7.35 13C3.79645 13 1 10.2683 1 7C1 3.73171 3.79645 1 7.35 1C10.9035 1 13.7 3.73171 13.7 7Z" stroke="#00D2E5" stroke-width="2"/>
<circle cx="7" cy="7" r="2.5" stroke="#00D2E5"/>
<circle cx="24" cy="7" r="2.5" stroke="#00D2E5"/>
<path d="M30.5 7C30.5 10.2683 27.7035 13 24.15 13C20.5964 13 17.8 10.2683 17.8 7C17.8 3.73171 20.5964 1 24.15 1C27.7035 1 30.5 3.73171 30.5 7Z" stroke="#00D2E5" stroke-width="2"/>
<path d="M14.35 6.40936L15.925 6.29999L17.5 6.40936V7.94061L15.925 8.04999L14.35 7.94061V6.40936Z" fill="#00D2E5"/>
</svg>
