<svg width="153" height="48" viewBox="0 0 153 48" fill="none" xmlns="http://www.w3.org/2000/svg">
<path d="M41.317 44.3403L25.7236 30.0016C24.6336 31.0684 23.3566 31.9442 21.8927 32.6288C20.4287 33.3134 18.8493 33.7195 17.1544 33.847C12.9558 34.1628 9.29928 32.8887 6.18472 30.0248C3.07016 27.1608 1.36392 23.5036 1.06599 19.0531C0.768058 14.6026 1.97001 10.7266 4.67184 7.42518C7.37366 4.12375 10.8239 2.31513 15.0225 1.99932C19.221 1.68352 22.8776 2.95758 25.9922 5.82153C29.1067 8.68547 30.813 12.3427 31.1109 16.7932C31.2312 18.5897 31.075 20.3045 30.6423 21.9374C30.2096 23.5703 29.5721 25.034 28.7296 26.3285L44.323 40.6672L41.317 44.3403ZM16.8264 28.9473C19.7154 28.73 22.0992 27.4735 23.978 25.1778C25.8567 22.8821 26.6936 20.2031 26.4886 17.1409C26.2836 14.0786 25.0982 11.5517 22.9325 9.56023C20.7667 7.56875 18.2394 6.68166 15.3504 6.89896C12.4615 7.11626 10.0777 8.37275 8.19892 10.6685C6.32016 12.9642 5.48328 15.6431 5.68828 18.7054C5.89328 21.7677 7.07865 24.2946 9.2444 26.286C11.4102 28.2775 13.9375 29.1646 16.8264 28.9473Z" fill="white"/>
<path d="M41.317 44.3403L25.7236 30.0016C24.6336 31.0684 23.3566 31.9442 21.8927 32.6288C20.4287 33.3134 18.8493 33.7195 17.1544 33.847C12.9558 34.1628 9.29928 32.8887 6.18472 30.0248C3.07016 27.1608 1.36392 23.5036 1.06599 19.0531C0.768058 14.6026 1.97001 10.7266 4.67184 7.42518C7.37366 4.12375 10.8239 2.31513 15.0225 1.99932C19.221 1.68352 22.8776 2.95758 25.9922 5.82153C29.1067 8.68547 30.813 12.3427 31.1109 16.7932C31.2312 18.5897 31.075 20.3045 30.6423 21.9374C30.2096 23.5703 29.5721 25.034 28.7296 26.3285L44.323 40.6672L41.317 44.3403ZM16.8264 28.9473C19.7154 28.73 22.0992 27.4735 23.978 25.1778C25.8567 22.8821 26.6936 20.2031 26.4886 17.1409C26.2836 14.0786 25.0982 11.5517 22.9325 9.56023C20.7667 7.56875 18.2394 6.68166 15.3504 6.89896C12.4615 7.11626 10.0777 8.37275 8.19892 10.6685C6.32016 12.9642 5.48328 15.6431 5.68828 18.7054C5.89328 21.7677 7.07865 24.2946 9.2444 26.286C11.4102 28.2775 13.9375 29.1646 16.8264 28.9473Z" fill="white"/>
<rect x="22.0382" y="5.71045" width="130.271" height="29.5901" rx="14.795" fill="#2914B5"/>
<path d="M35.688 27.096C34.8453 27.096 34.0667 26.9573 33.352 26.68C32.6373 26.392 32.0187 25.992 31.496 25.48C30.9733 24.968 30.5627 24.3653 30.264 23.672C29.976 22.9787 29.832 22.2213 29.832 21.4C29.832 20.5787 29.976 19.8213 30.264 19.128C30.5627 18.4347 30.9733 17.832 31.496 17.32C32.0293 16.808 32.6533 16.4133 33.368 16.136C34.0827 15.848 34.8613 15.704 35.704 15.704C36.5147 15.704 37.2773 15.8427 37.992 16.12C38.7067 16.3867 39.3093 16.792 39.8 17.336L39.048 18.088C38.5893 17.6187 38.0827 17.2827 37.528 17.08C36.9733 16.8667 36.376 16.76 35.736 16.76C35.064 16.76 34.44 16.8773 33.864 17.112C33.288 17.336 32.7867 17.6613 32.36 18.088C31.9333 18.504 31.5973 18.9947 31.352 19.56C31.1173 20.1147 31 20.728 31 21.4C31 22.072 31.1173 22.6907 31.352 23.256C31.5973 23.8107 31.9333 24.3013 32.36 24.728C32.7867 25.144 33.288 25.4693 33.864 25.704C34.44 25.928 35.064 26.04 35.736 26.04C36.376 26.04 36.9733 25.9333 37.528 25.72C38.0827 25.5067 38.5893 25.1653 39.048 24.696L39.8 25.448C39.3093 25.992 38.7067 26.4027 37.992 26.68C37.2773 26.9573 36.5093 27.096 35.688 27.096ZM45.133 27.08C44.3223 27.08 43.5917 26.8987 42.941 26.536C42.301 26.1627 41.7943 25.656 41.421 25.016C41.0477 24.3653 40.861 23.624 40.861 22.792C40.861 21.9493 41.0477 21.208 41.421 20.568C41.7943 19.928 42.301 19.4267 42.941 19.064C43.581 18.7013 44.3117 18.52 45.133 18.52C45.965 18.52 46.701 18.7013 47.341 19.064C47.9917 19.4267 48.4983 19.928 48.861 20.568C49.2343 21.208 49.421 21.9493 49.421 22.792C49.421 23.624 49.2343 24.3653 48.861 25.016C48.4983 25.656 47.9917 26.1627 47.341 26.536C46.6903 26.8987 45.9543 27.08 45.133 27.08ZM45.133 26.072C45.741 26.072 46.2797 25.9387 46.749 25.672C47.2183 25.3947 47.5863 25.0107 47.853 24.52C48.1303 24.0187 48.269 23.4427 48.269 22.792C48.269 22.1307 48.1303 21.5547 47.853 21.064C47.5863 20.5733 47.2183 20.1947 46.749 19.928C46.2797 19.6507 45.7463 19.512 45.149 19.512C44.5517 19.512 44.0183 19.6507 43.549 19.928C43.0797 20.1947 42.7063 20.5733 42.429 21.064C42.1517 21.5547 42.013 22.1307 42.013 22.792C42.013 23.4427 42.1517 24.0187 42.429 24.52C42.7063 25.0107 43.0797 25.3947 43.549 25.672C44.0183 25.9387 44.5463 26.072 45.133 26.072ZM51.7403 27V15.128H52.8763V27H51.7403ZM56.0371 27V15.128H57.1731V27H56.0371ZM63.902 27.08C63.0273 27.08 62.2593 26.8987 61.598 26.536C60.9367 26.1627 60.4193 25.656 60.046 25.016C59.6727 24.3653 59.486 23.624 59.486 22.792C59.486 21.96 59.662 21.224 60.014 20.584C60.3767 19.944 60.8673 19.4427 61.486 19.08C62.1153 18.7067 62.8193 18.52 63.598 18.52C64.3873 18.52 65.086 18.7013 65.694 19.064C66.3127 19.416 66.798 19.9173 67.15 20.568C67.502 21.208 67.678 21.9493 67.678 22.792C67.678 22.8453 67.6727 22.904 67.662 22.968C67.662 23.0213 67.662 23.08 67.662 23.144H60.35V22.296H67.054L66.606 22.632C66.606 22.024 66.4727 21.4853 66.206 21.016C65.95 20.536 65.598 20.1627 65.15 19.896C64.702 19.6293 64.1847 19.496 63.598 19.496C63.022 19.496 62.5047 19.6293 62.046 19.896C61.5873 20.1627 61.23 20.536 60.974 21.016C60.718 21.496 60.59 22.0453 60.59 22.664V22.84C60.59 23.48 60.7287 24.0453 61.006 24.536C61.294 25.016 61.6887 25.3947 62.19 25.672C62.702 25.9387 63.2833 26.072 63.934 26.072C64.446 26.072 64.9207 25.9813 65.358 25.8C65.806 25.6187 66.19 25.3413 66.51 24.968L67.15 25.704C66.7767 26.152 66.3073 26.4933 65.742 26.728C65.1873 26.9627 64.574 27.08 63.902 27.08ZM73.5743 30.184C72.8063 30.184 72.0703 30.072 71.3663 29.848C70.6623 29.624 70.0916 29.304 69.6543 28.888L70.2303 28.024C70.6249 28.376 71.1103 28.6533 71.6863 28.856C72.2729 29.0693 72.8916 29.176 73.5423 29.176C74.6089 29.176 75.3929 28.9253 75.8943 28.424C76.3956 27.9333 76.6463 27.1653 76.6463 26.12V24.024L76.8063 22.584L76.6943 21.144V18.6H77.7823V25.976C77.7823 27.4267 77.4249 28.488 76.7103 29.16C76.0063 29.8427 74.9609 30.184 73.5743 30.184ZM73.3663 26.68C72.5663 26.68 71.8463 26.5093 71.2063 26.168C70.5663 25.816 70.0596 25.3307 69.6863 24.712C69.3236 24.0933 69.1423 23.384 69.1423 22.584C69.1423 21.784 69.3236 21.08 69.6863 20.472C70.0596 19.8533 70.5663 19.3733 71.2063 19.032C71.8463 18.6907 72.5663 18.52 73.3663 18.52C74.1129 18.52 74.7849 18.6747 75.3823 18.984C75.9796 19.2933 76.4543 19.752 76.8063 20.36C77.1583 20.968 77.3343 21.7093 77.3343 22.584C77.3343 23.4587 77.1583 24.2 76.8063 24.808C76.4543 25.416 75.9796 25.88 75.3823 26.2C74.7849 26.52 74.1129 26.68 73.3663 26.68ZM73.4783 25.672C74.0969 25.672 74.6463 25.544 75.1263 25.288C75.6063 25.0213 75.9849 24.6587 76.2623 24.2C76.5396 23.7307 76.6783 23.192 76.6783 22.584C76.6783 21.976 76.5396 21.4427 76.2623 20.984C75.9849 20.5253 75.6063 20.168 75.1263 19.912C74.6463 19.6453 74.0969 19.512 73.4783 19.512C72.8703 19.512 72.3209 19.6453 71.8303 19.912C71.3503 20.168 70.9716 20.5253 70.6943 20.984C70.4276 21.4427 70.2943 21.976 70.2943 22.584C70.2943 23.192 70.4276 23.7307 70.6943 24.2C70.9716 24.6587 71.3503 25.0213 71.8303 25.288C72.3209 25.544 72.8703 25.672 73.4783 25.672ZM84.5114 27.08C83.6367 27.08 82.8687 26.8987 82.2074 26.536C81.546 26.1627 81.0287 25.656 80.6554 25.016C80.282 24.3653 80.0954 23.624 80.0954 22.792C80.0954 21.96 80.2714 21.224 80.6234 20.584C80.986 19.944 81.4767 19.4427 82.0954 19.08C82.7247 18.7067 83.4287 18.52 84.2074 18.52C84.9967 18.52 85.6954 18.7013 86.3034 19.064C86.922 19.416 87.4074 19.9173 87.7594 20.568C88.1114 21.208 88.2874 21.9493 88.2874 22.792C88.2874 22.8453 88.282 22.904 88.2714 22.968C88.2714 23.0213 88.2714 23.08 88.2714 23.144H80.9594V22.296H87.6634L87.2154 22.632C87.2154 22.024 87.082 21.4853 86.8154 21.016C86.5594 20.536 86.2074 20.1627 85.7594 19.896C85.3114 19.6293 84.794 19.496 84.2074 19.496C83.6314 19.496 83.114 19.6293 82.6554 19.896C82.1967 20.1627 81.8394 20.536 81.5834 21.016C81.3274 21.496 81.1994 22.0453 81.1994 22.664V22.84C81.1994 23.48 81.338 24.0453 81.6154 24.536C81.9034 25.016 82.298 25.3947 82.7994 25.672C83.3114 25.9387 83.8927 26.072 84.5434 26.072C85.0554 26.072 85.53 25.9813 85.9674 25.8C86.4154 25.6187 86.7994 25.3413 87.1194 24.968L87.7594 25.704C87.386 26.152 86.9167 26.4933 86.3514 26.728C85.7967 26.9627 85.1834 27.08 84.5114 27.08ZM93.9276 27.096C93.0956 27.096 92.2956 26.9627 91.5276 26.696C90.7703 26.4187 90.1836 26.0667 89.7676 25.64L90.2316 24.728C90.6263 25.112 91.1543 25.4373 91.8156 25.704C92.4876 25.96 93.1916 26.088 93.9276 26.088C94.6316 26.088 95.2023 26.0027 95.6396 25.832C96.0876 25.6507 96.413 25.4107 96.6156 25.112C96.829 24.8133 96.9356 24.4827 96.9356 24.12C96.9356 23.6827 96.8076 23.3307 96.5516 23.064C96.3063 22.7973 95.981 22.5893 95.5756 22.44C95.1703 22.28 94.7223 22.1413 94.2316 22.024C93.741 21.9067 93.2503 21.784 92.7596 21.656C92.269 21.5173 91.8156 21.336 91.3996 21.112C90.9943 20.888 90.6636 20.5947 90.4076 20.232C90.1623 19.8587 90.0396 19.3733 90.0396 18.776C90.0396 18.2213 90.1836 17.7147 90.4716 17.256C90.7703 16.7867 91.2236 16.4133 91.8316 16.136C92.4396 15.848 93.2183 15.704 94.1676 15.704C94.797 15.704 95.421 15.7947 96.0396 15.976C96.6583 16.1467 97.1916 16.3867 97.6396 16.696L97.2396 17.64C96.7596 17.32 96.2476 17.0853 95.7036 16.936C95.1703 16.7867 94.653 16.712 94.1516 16.712C93.4796 16.712 92.925 16.8027 92.4876 16.984C92.0503 17.1653 91.725 17.4107 91.5116 17.72C91.309 18.0187 91.2076 18.36 91.2076 18.744C91.2076 19.1813 91.3303 19.5333 91.5756 19.8C91.8316 20.0667 92.1623 20.2747 92.5676 20.424C92.9836 20.5733 93.437 20.7067 93.9276 20.824C94.4183 20.9413 94.9036 21.0693 95.3836 21.208C95.8743 21.3467 96.3223 21.528 96.7276 21.752C97.1436 21.9653 97.4743 22.2533 97.7196 22.616C97.9756 22.9787 98.1036 23.4533 98.1036 24.04C98.1036 24.584 97.9543 25.0907 97.6556 25.56C97.357 26.0187 96.8983 26.392 96.2796 26.68C95.6716 26.9573 94.8876 27.096 93.9276 27.096ZM104.011 27.08C103.137 27.08 102.369 26.8987 101.707 26.536C101.046 26.1627 100.529 25.656 100.155 25.016C99.782 24.3653 99.5954 23.624 99.5954 22.792C99.5954 21.96 99.7714 21.224 100.123 20.584C100.486 19.944 100.977 19.4427 101.595 19.08C102.225 18.7067 102.929 18.52 103.707 18.52C104.497 18.52 105.195 18.7013 105.803 19.064C106.422 19.416 106.907 19.9173 107.259 20.568C107.611 21.208 107.787 21.9493 107.787 22.792C107.787 22.8453 107.782 22.904 107.771 22.968C107.771 23.0213 107.771 23.08 107.771 23.144H100.459V22.296H107.163L106.715 22.632C106.715 22.024 106.582 21.4853 106.315 21.016C106.059 20.536 105.707 20.1627 105.259 19.896C104.811 19.6293 104.294 19.496 103.707 19.496C103.131 19.496 102.614 19.6293 102.155 19.896C101.697 20.1627 101.339 20.536 101.083 21.016C100.827 21.496 100.699 22.0453 100.699 22.664V22.84C100.699 23.48 100.838 24.0453 101.115 24.536C101.403 25.016 101.798 25.3947 102.299 25.672C102.811 25.9387 103.393 26.072 104.043 26.072C104.555 26.072 105.03 25.9813 105.467 25.8C105.915 25.6187 106.299 25.3413 106.619 24.968L107.259 25.704C106.886 26.152 106.417 26.4933 105.851 26.728C105.297 26.9627 104.683 27.08 104.011 27.08ZM113.668 27.08C112.793 27.08 112.025 26.8987 111.364 26.536C110.702 26.1627 110.185 25.656 109.812 25.016C109.438 24.3653 109.252 23.624 109.252 22.792C109.252 21.96 109.428 21.224 109.78 20.584C110.142 19.944 110.633 19.4427 111.252 19.08C111.881 18.7067 112.585 18.52 113.364 18.52C114.153 18.52 114.852 18.7013 115.46 19.064C116.078 19.416 116.564 19.9173 116.916 20.568C117.268 21.208 117.444 21.9493 117.444 22.792C117.444 22.8453 117.438 22.904 117.428 22.968C117.428 23.0213 117.428 23.08 117.428 23.144H110.116V22.296H116.82L116.372 22.632C116.372 22.024 116.238 21.4853 115.972 21.016C115.716 20.536 115.364 20.1627 114.916 19.896C114.468 19.6293 113.95 19.496 113.364 19.496C112.788 19.496 112.27 19.6293 111.812 19.896C111.353 20.1627 110.996 20.536 110.74 21.016C110.484 21.496 110.356 22.0453 110.356 22.664V22.84C110.356 23.48 110.494 24.0453 110.772 24.536C111.06 25.016 111.454 25.3947 111.956 25.672C112.468 25.9387 113.049 26.072 113.7 26.072C114.212 26.072 114.686 25.9813 115.124 25.8C115.572 25.6187 115.956 25.3413 116.276 24.968L116.916 25.704C116.542 26.152 116.073 26.4933 115.508 26.728C114.953 26.9627 114.34 27.08 113.668 27.08ZM120.652 24.824L120.684 23.368L125.916 18.6H127.308L123.612 22.136L122.972 22.68L120.652 24.824ZM119.756 27V15.128H120.892V27H119.756ZM126.268 27L122.764 22.632L123.5 21.752L127.66 27H126.268ZM132.605 27.08C131.73 27.08 130.962 26.8987 130.301 26.536C129.64 26.1627 129.122 25.656 128.749 25.016C128.376 24.3653 128.189 23.624 128.189 22.792C128.189 21.96 128.365 21.224 128.717 20.584C129.08 19.944 129.57 19.4427 130.189 19.08C130.818 18.7067 131.522 18.52 132.301 18.52C133.09 18.52 133.789 18.7013 134.397 19.064C135.016 19.416 135.501 19.9173 135.853 20.568C136.205 21.208 136.381 21.9493 136.381 22.792C136.381 22.8453 136.376 22.904 136.365 22.968C136.365 23.0213 136.365 23.08 136.365 23.144H129.053V22.296H135.757L135.309 22.632C135.309 22.024 135.176 21.4853 134.909 21.016C134.653 20.536 134.301 20.1627 133.853 19.896C133.405 19.6293 132.888 19.496 132.301 19.496C131.725 19.496 131.208 19.6293 130.749 19.896C130.29 20.1627 129.933 20.536 129.677 21.016C129.421 21.496 129.293 22.0453 129.293 22.664V22.84C129.293 23.48 129.432 24.0453 129.709 24.536C129.997 25.016 130.392 25.3947 130.893 25.672C131.405 25.9387 131.986 26.072 132.637 26.072C133.149 26.072 133.624 25.9813 134.061 25.8C134.509 25.6187 134.893 25.3413 135.213 24.968L135.853 25.704C135.48 26.152 135.01 26.4933 134.445 26.728C133.89 26.9627 133.277 27.08 132.605 27.08ZM138.693 27V18.6H139.781V20.888L139.669 20.488C139.904 19.848 140.299 19.3627 140.853 19.032C141.408 18.6907 142.096 18.52 142.917 18.52V19.624C142.875 19.624 142.832 19.624 142.789 19.624C142.747 19.6133 142.704 19.608 142.661 19.608C141.776 19.608 141.083 19.88 140.581 20.424C140.08 20.9573 139.829 21.72 139.829 22.712V27H138.693ZM147.34 27.08C146.647 27.08 145.991 26.984 145.372 26.792C144.753 26.5893 144.268 26.3387 143.916 26.04L144.428 25.144C144.769 25.4 145.207 25.624 145.74 25.816C146.273 25.9973 146.833 26.088 147.42 26.088C148.22 26.088 148.796 25.9653 149.148 25.72C149.5 25.464 149.676 25.128 149.676 24.712C149.676 24.4027 149.575 24.1627 149.372 23.992C149.18 23.8107 148.924 23.6773 148.604 23.592C148.284 23.496 147.927 23.416 147.532 23.352C147.137 23.288 146.743 23.2133 146.348 23.128C145.964 23.0427 145.612 22.92 145.292 22.76C144.972 22.5893 144.711 22.36 144.508 22.072C144.316 21.784 144.22 21.4 144.22 20.92C144.22 20.4613 144.348 20.0507 144.604 19.688C144.86 19.3253 145.233 19.0427 145.724 18.84C146.225 18.6267 146.833 18.52 147.548 18.52C148.092 18.52 148.636 18.5947 149.18 18.744C149.724 18.8827 150.172 19.0693 150.524 19.304L150.028 20.216C149.655 19.96 149.255 19.7787 148.828 19.672C148.401 19.5547 147.975 19.496 147.548 19.496C146.791 19.496 146.231 19.6293 145.868 19.896C145.516 20.152 145.34 20.4827 145.34 20.888C145.34 21.208 145.436 21.4587 145.628 21.64C145.831 21.8213 146.092 21.9653 146.412 22.072C146.743 22.168 147.1 22.248 147.484 22.312C147.879 22.376 148.268 22.456 148.652 22.552C149.047 22.6373 149.404 22.76 149.724 22.92C150.055 23.0693 150.316 23.288 150.508 23.576C150.711 23.8533 150.812 24.2213 150.812 24.68C150.812 25.1707 150.673 25.5973 150.396 25.96C150.129 26.312 149.735 26.5893 149.212 26.792C148.7 26.984 148.076 27.08 147.34 27.08Z" fill="white"/>
</svg>
