<svg width="47" height="47" viewBox="0 0 47 47" fill="none" xmlns="http://www.w3.org/2000/svg">
<path d="M14.6875 40.2731H10.2812C9.89171 40.2731 9.51813 40.1184 9.24269 39.8429C8.96724 39.5675 8.8125 39.1939 8.8125 38.8044C8.8125 38.4148 8.96724 38.0412 9.24269 37.7658C9.51813 37.4904 9.89171 37.3356 10.2812 37.3356H13.5566L14.6875 33.9281C14.7488 33.7446 14.8458 33.575 14.9728 33.4291C15.0999 33.2832 15.2545 33.1638 15.4279 33.0778C15.6012 32.9918 15.7898 32.9409 15.9829 32.9281C16.1759 32.9152 16.3696 32.9406 16.5528 33.0028C16.92 33.1268 17.2233 33.3909 17.3966 33.7375C17.57 34.0842 17.5993 34.4853 17.4781 34.8534L16.0094 39.2597C15.9176 39.5426 15.742 39.7909 15.506 39.9719C15.27 40.1529 14.9845 40.2579 14.6875 40.2731Z" fill="#FF8F00"/>
<path d="M8.8125 41.7419C8.23152 41.7419 7.66358 41.5696 7.18051 41.2468C6.69744 40.924 6.32094 40.4653 6.09861 39.9285C5.87627 39.3918 5.8181 38.8011 5.93144 38.2313C6.04479 37.6615 6.32456 37.1381 6.73538 36.7273C7.14619 36.3164 7.6696 36.0367 8.23942 35.9233C8.80924 35.81 9.39988 35.8682 9.93663 36.0905C10.4734 36.3128 10.9322 36.6893 11.2549 37.1724C11.5777 37.6555 11.75 38.2234 11.75 38.8044C11.75 39.5835 11.4405 40.3306 10.8896 40.8815C10.3387 41.4324 9.59158 41.7419 8.8125 41.7419Z" fill="#1565C0"/>
<path d="M13.2188 10.8982C13.0244 10.8974 12.8322 10.858 12.6532 10.7824C12.4742 10.7067 12.312 10.5963 12.1759 10.4575L9.67906 7.96066H7.34375C6.95421 7.96066 6.58063 7.80591 6.30519 7.53047C6.02974 7.25503 5.875 6.88144 5.875 6.49191C5.875 6.10237 6.02974 5.72879 6.30519 5.45334C6.58063 5.1779 6.95421 5.02316 7.34375 5.02316H10.2812C10.4745 5.02204 10.6662 5.05909 10.8451 5.13218C11.0241 5.20527 11.1868 5.31297 11.3241 5.44909L14.2616 8.38659C14.4687 8.59203 14.61 8.8545 14.6673 9.14053C14.7247 9.42657 14.6956 9.72321 14.5838 9.99265C14.4719 10.2621 14.2823 10.4921 14.0392 10.6534C13.7961 10.8146 13.5105 10.8999 13.2188 10.8982Z" fill="#FF8F00"/>
<path d="M5.875 9.42938C5.29402 9.42938 4.72608 9.2571 4.24301 8.93433C3.75994 8.61155 3.38344 8.15277 3.16111 7.61602C2.93877 7.07926 2.8806 6.48863 2.99394 5.91881C3.10729 5.34899 3.38706 4.82557 3.79787 4.41476C4.20869 4.00394 4.7321 3.72417 5.30192 3.61083C5.87174 3.49748 6.46238 3.55566 6.99913 3.77799C7.53589 4.00032 7.99467 4.37683 8.31744 4.8599C8.64022 5.34297 8.8125 5.9109 8.8125 6.49188C8.8125 7.27096 8.50302 8.01812 7.95213 8.56901C7.40124 9.1199 6.65407 9.42938 5.875 9.42938Z" fill="#1565C0"/>
<path d="M32.2391 9.42938H35.1766L36.6453 6.49188H39.5828" fill="#F57C00"/>
<path d="M35.25 10.8982H32.3125C31.923 10.8982 31.5494 10.7434 31.2739 10.468C30.9985 10.1925 30.8438 9.81895 30.8438 9.42941C30.8438 9.03988 30.9985 8.66629 31.2739 8.39085C31.5494 8.11541 31.923 7.96066 32.3125 7.96066H34.3394L35.3381 5.87504C35.4591 5.61314 35.6546 5.39269 35.9002 5.24119C36.1457 5.08969 36.4304 5.01386 36.7188 5.02316H39.6562C40.0458 5.02316 40.4194 5.17791 40.6948 5.45335C40.9703 5.72879 41.125 6.10238 41.125 6.49191C41.125 6.88145 40.9703 7.25503 40.6948 7.53048C40.4194 7.80592 40.0458 7.96066 39.6562 7.96066H37.5559L36.4984 10.0757C36.383 10.312 36.2063 10.513 35.9867 10.6576C35.7671 10.8023 35.5127 10.8854 35.25 10.8982Z" fill="#F57C00"/>
<path d="M41.1984 9.67908C40.6174 9.67908 40.0495 9.5068 39.5664 9.18402C39.0834 8.86124 38.7069 8.40247 38.4845 7.86571C38.2622 7.32895 38.204 6.73832 38.3174 6.1685C38.4307 5.59868 38.7105 5.07527 39.1213 4.66445C39.5321 4.25364 40.0555 3.97387 40.6253 3.86052C41.1952 3.74718 41.7858 3.80535 42.3226 4.02768C42.8593 4.25001 43.3181 4.62652 43.6409 5.10959C43.9636 5.59266 44.1359 6.1606 44.1359 6.74158C44.1359 7.52065 43.8264 8.26782 43.2756 8.8187C42.7247 9.36959 41.9775 9.67908 41.1984 9.67908Z" fill="#1565C0"/>
<path d="M41.5215 35.6907L35.6465 29.8157L33.7812 27.4069C33.6512 27.2503 33.4901 27.1224 33.308 27.0314C33.126 26.9404 32.927 26.8882 32.7237 26.8782C32.5217 26.8671 32.3196 26.898 32.13 26.9687C31.9404 27.0395 31.7675 27.1487 31.6222 27.2894L26.9662 31.9013C26.8274 32.0373 26.717 32.1995 26.6414 32.3785C26.5658 32.5575 26.5264 32.7498 26.5256 32.9441C26.5245 33.1374 26.5615 33.329 26.6346 33.508C26.7077 33.6869 26.8154 33.8497 26.9515 33.9869L35.0737 42.1532C35.8993 42.9797 37.0193 43.4446 38.1875 43.4457C39.3557 43.4446 40.4757 42.9797 41.3012 42.1532L41.5509 41.9035C42.3677 41.074 42.8231 39.9551 42.8175 38.791C42.812 37.6269 42.3461 36.5123 41.5215 35.6907Z" fill="#304046"/>
<path d="M23.4266 37.3356C32.3494 37.3356 39.5828 30.1022 39.5828 21.1794C39.5828 12.2565 32.3494 5.02313 23.4266 5.02313C14.5037 5.02313 7.27032 12.2565 7.27032 21.1794C7.27032 30.1022 14.5037 37.3356 23.4266 37.3356Z" fill="#01579B"/>
<path d="M23.4266 31.4606C29.1048 31.4606 33.7078 26.8576 33.7078 21.1794C33.7078 15.5012 29.1048 10.8981 23.4266 10.8981C17.7484 10.8981 13.1453 15.5012 13.1453 21.1794C13.1453 26.8576 17.7484 31.4606 23.4266 31.4606Z" fill="#BBDEFB"/>
<path d="M14.6875 40.3906H10.2813C9.89171 40.3906 9.51813 40.2359 9.24269 39.9604C8.96724 39.685 8.8125 39.3114 8.8125 38.9219C8.8125 38.5323 8.96724 38.1587 9.24269 37.8833C9.51813 37.6079 9.89171 37.4531 10.2813 37.4531H13.63L14.7609 34.0456C14.8856 33.6756 15.1521 33.3702 15.502 33.1966C15.8518 33.0231 16.2562 32.9957 16.6263 33.1203C16.9963 33.245 17.3017 33.5115 17.4752 33.8613C17.6488 34.2111 17.6762 34.6156 17.5516 34.9856L16.0828 39.3919C15.9843 39.6836 15.7966 39.937 15.5462 40.1162C15.2958 40.2954 14.9954 40.3914 14.6875 40.3906Z" fill="#FF8F00"/>
<path d="M8.8125 41.8594C8.23152 41.8594 7.66358 41.6871 7.18051 41.3643C6.69744 41.0415 6.32094 40.5828 6.09861 40.046C5.87627 39.5093 5.8181 38.9186 5.93144 38.3488C6.04479 37.779 6.32456 37.2556 6.73538 36.8448C7.14619 36.4339 7.6696 36.1542 8.23942 36.0408C8.80924 35.9275 9.39988 35.9856 9.93663 36.208C10.4734 36.4303 10.9322 36.8068 11.2549 37.2899C11.5777 37.773 11.75 38.3409 11.75 38.9219C11.75 39.701 11.4405 40.4481 10.8896 40.999C10.3387 41.5499 9.59158 41.8594 8.8125 41.8594Z" fill="#0277BD"/>
<path d="M13.2188 11.0156C13.0255 11.0168 12.8338 10.9797 12.6549 10.9066C12.4759 10.8335 12.3132 10.7258 12.1759 10.5897L9.67906 8.07815H7.34375C6.95421 8.07815 6.58063 7.92341 6.30519 7.64796C6.02974 7.37252 5.875 6.99894 5.875 6.6094C5.875 6.21986 6.02974 5.84628 6.30519 5.57084C6.58063 5.29539 6.95421 5.14065 7.34375 5.14065H10.2812C10.4745 5.13953 10.6662 5.17658 10.8451 5.24967C11.0241 5.32276 11.1868 5.43046 11.3241 5.56659L14.2616 8.50409C14.3992 8.64063 14.5085 8.80307 14.5831 8.98205C14.6576 9.16103 14.696 9.35301 14.696 9.5469C14.696 9.74079 14.6576 9.93277 14.5831 10.1117C14.5085 10.2907 14.3992 10.4532 14.2616 10.5897C14.1243 10.7258 13.9616 10.8335 13.7826 10.9066C13.6037 10.9797 13.412 11.0168 13.2188 11.0156Z" fill="#FF8F00"/>
<path d="M5.875 9.54688C5.29402 9.54688 4.72608 9.37459 4.24301 9.05182C3.75994 8.72904 3.38344 8.27027 3.16111 7.73351C2.93877 7.19675 2.8806 6.60612 2.99394 6.0363C3.10729 5.46648 3.38706 4.94307 3.79787 4.53225C4.20869 4.12143 4.7321 3.84166 5.30192 3.72832C5.87174 3.61498 6.46238 3.67315 6.99913 3.89548C7.53589 4.11781 7.99467 4.49432 8.31744 4.97739C8.64022 5.46046 8.8125 6.02839 8.8125 6.60938C8.8125 7.38845 8.50302 8.13561 7.95213 8.6865C7.40124 9.23739 6.65407 9.54688 5.875 9.54688Z" fill="#0277BD"/>
<path d="M7.34375 21.2969C7.34375 25.5818 9.04592 29.6912 12.0758 32.7211C15.1057 35.751 19.2151 37.4531 23.5 37.4531V5.14062C19.2151 5.14063 15.1057 6.8428 12.0758 9.87268C9.04592 12.9026 7.34375 17.012 7.34375 21.2969Z" fill="#0277BD"/>
<path d="M13.2188 21.2969C13.2188 24.0236 14.302 26.6387 16.2301 28.5668C18.1582 30.4949 20.7732 31.5781 23.5 31.5781V11.0156C20.7732 11.0156 18.1582 12.0988 16.2301 14.0269C14.302 15.955 13.2188 18.5701 13.2188 21.2969Z" fill="#E3F2FD"/>
</svg>
