<svg width="43" height="43" viewBox="0 0 43 43" fill="none" xmlns="http://www.w3.org/2000/svg">
<path d="M32.6781 9.8625L30.4118 6.8C30.2661 6.60563 30.0763 6.44871 29.8579 6.34221C29.6396 6.2357 29.3991 6.18267 29.1562 6.1875H14.1499C13.9288 6.18748 13.7102 6.23538 13.5093 6.3279C13.3084 6.42042 13.13 6.55536 12.9862 6.72343L10.3524 9.78593C10.1263 10.0676 10.007 10.4201 10.0156 10.7812V21.9441C10.0196 24.611 11.0808 27.1675 12.9666 29.0533C14.8524 30.9391 17.409 32.0003 20.0759 32.0044H22.924C25.5909 32.0003 28.1475 30.9391 30.0333 29.0533C31.9191 27.1675 32.9803 24.611 32.9843 21.9441V10.7812C32.9843 10.4499 32.8769 10.1275 32.6781 9.8625Z" fill="#FFCC80"/>
<path d="M42.6005 40.4569L36.4755 32.8006C36.2979 32.5741 36.06 32.4022 35.7892 32.3047C35.5184 32.2072 35.2255 32.188 34.9443 32.2494L21.4999 35.2813L8.05552 32.2188C7.77428 32.1574 7.48144 32.1766 7.2106 32.2741C6.93976 32.3716 6.70189 32.5435 6.52427 32.77L0.399275 40.4263C0.221544 40.6503 0.110129 40.9197 0.077653 41.2039C0.0451768 41.4881 0.0929377 41.7757 0.215524 42.0341C0.335207 42.3004 0.528527 42.5269 0.772698 42.687C1.01687 42.847 1.30171 42.934 1.59365 42.9375H41.4061C41.6948 42.9367 41.9773 42.8543 42.2211 42.6999C42.4649 42.5455 42.6602 42.3253 42.7843 42.0647C42.9069 41.8063 42.9546 41.5187 42.9221 41.2345C42.8897 40.9504 42.7783 40.681 42.6005 40.4569Z" fill="#01579B"/>
<path d="M41.8502 6.18749L21.944 0.0624921C21.6529 -0.0140762 21.347 -0.0140762 21.0559 0.0624921L1.14962 6.18749C0.824111 6.28579 0.54058 6.48964 0.343731 6.76689C0.146882 7.04414 0.047914 7.37903 0.0624323 7.71874C0.049725 8.06243 0.153087 8.40038 0.355866 8.67816C0.558645 8.95594 0.849033 9.15737 1.18024 9.24999L21.0865 14.7625C21.3561 14.8443 21.6438 14.8443 21.9134 14.7625L41.8196 9.24999C42.1508 9.15737 42.4412 8.95594 42.644 8.67816C42.8468 8.40038 42.9501 8.06243 42.9374 7.71874C42.952 7.37903 42.853 7.04414 42.6561 6.76689C42.4593 6.48964 42.1758 6.28579 41.8502 6.18749Z" fill="#01579B"/>
<path d="M14.1805 6.1875C13.9593 6.18749 13.7408 6.23538 13.5399 6.3279C13.339 6.42042 13.1605 6.55536 13.0168 6.72344L10.383 9.78594C10.1458 10.0633 10.0155 10.4163 10.0155 10.7812V21.9441C10.0196 24.611 11.0808 27.1675 12.9666 29.0533C14.8524 30.9391 17.4089 32.0003 20.0758 32.0044H21.4999V6.1875H14.1805Z" fill="#FFE0B2"/>
<path d="M8.05553 32.2188C7.77428 32.1574 7.48144 32.1766 7.2106 32.2741C6.93976 32.3716 6.70189 32.5435 6.52428 32.77L0.399275 40.4263C0.221544 40.6503 0.110129 40.9197 0.077653 41.2039C0.0451768 41.4881 0.0929377 41.7757 0.215524 42.0341C0.335207 42.3004 0.528527 42.5269 0.772698 42.687C1.01687 42.847 1.30171 42.934 1.59365 42.9375H21.4999V35.2813L8.05553 32.2188Z" fill="#0277BD"/>
<path d="M21.0559 0.0624679L1.14962 6.18747C0.824111 6.28577 0.54058 6.48961 0.343731 6.76686C0.146882 7.04412 0.047914 7.379 0.0624323 7.71872C0.049725 8.0624 0.153087 8.40036 0.355866 8.67814C0.558645 8.95592 0.849033 9.15734 1.18024 9.24997L21.0865 14.7625C21.2234 14.7848 21.363 14.7848 21.4999 14.7625V0.0624679C21.3528 0.0389918 21.203 0.0389918 21.0559 0.0624679Z" fill="#0277BD"/>
</svg>
