<svg width="42" height="42" viewBox="0 0 42 42" fill="none" xmlns="http://www.w3.org/2000/svg">
<path d="M31.5 8.91003V41.1H10.5V8.91003C10.4985 8.41473 10.6196 7.92675 10.8525 7.48965C11.0854 7.05254 11.423 6.67992 11.835 6.40503L19.335 1.41003C19.828 1.08111 20.4074 0.905579 21 0.905579C21.5927 0.905579 22.172 1.08111 22.665 1.41003L30.165 6.40503C30.577 6.67992 30.9146 7.05254 31.1475 7.48965C31.3805 7.92675 31.5016 8.41473 31.5 8.91003Z" fill="#2E7D32"/>
<path d="M37.5 20.1H31.5V41.1H37.5C38.6935 41.1 39.8381 40.6259 40.682 39.782C41.5259 38.9381 42 37.7935 42 36.6V24.6C42 23.4066 41.5259 22.262 40.682 21.4181C39.8381 20.5741 38.6935 20.1 37.5 20.1Z" fill="#FF6F00"/>
<path d="M24 23.1H18C17.6022 23.1 17.2206 23.2581 16.9393 23.5394C16.658 23.8207 16.5 24.2022 16.5 24.6V41.1H19.5V26.1H22.5V41.1H25.5V24.6C25.5 24.2022 25.342 23.8207 25.0607 23.5394C24.7794 23.2581 24.3978 23.1 24 23.1Z" fill="#263238"/>
<path d="M24 12.6H18C17.6022 12.6 17.2206 12.442 16.9393 12.1607C16.658 11.8794 16.5 11.4979 16.5 11.1C16.5 10.7022 16.658 10.3207 16.9393 10.0394C17.2206 9.75807 17.6022 9.60004 18 9.60004H24C24.3978 9.60004 24.7794 9.75807 25.0607 10.0394C25.342 10.3207 25.5 10.7022 25.5 11.1C25.5 11.4979 25.342 11.8794 25.0607 12.1607C24.7794 12.442 24.3978 12.6 24 12.6Z" fill="#F5F5F5"/>
<path d="M24 18.6H18C17.6022 18.6 17.2206 18.442 16.9393 18.1607C16.658 17.8794 16.5 17.4979 16.5 17.1C16.5 16.7022 16.658 16.3207 16.9393 16.0394C17.2206 15.7581 17.6022 15.6 18 15.6H24C24.3978 15.6 24.7794 15.7581 25.0607 16.0394C25.342 16.3207 25.5 16.7022 25.5 17.1C25.5 17.4979 25.342 17.8794 25.0607 18.1607C24.7794 18.442 24.3978 18.6 24 18.6Z" fill="#F5F5F5"/>
<path d="M19.35 1.41002L11.85 6.40502C11.4352 6.67819 11.0947 7.05006 10.8591 7.48728C10.6235 7.92449 10.5001 8.41336 10.5 8.91002V41.1H21V0.900024C20.4119 0.904617 19.8381 1.08197 19.35 1.41002Z" fill="#388E3C"/>
<path d="M18 23.1C17.6022 23.1 17.2206 23.2581 16.9393 23.5394C16.658 23.8207 16.5 24.2022 16.5 24.6V41.1H19.5V26.1H21V23.1H18Z" fill="#37474F"/>
<path d="M18 9.60004C17.6022 9.60004 17.2206 9.75807 16.9393 10.0394C16.658 10.3207 16.5 10.7022 16.5 11.1C16.5 11.4979 16.658 11.8794 16.9393 12.1607C17.2206 12.442 17.6022 12.6 18 12.6H21V9.60004H18Z" fill="#F5F5F5"/>
<path d="M18 15.6C17.6022 15.6 17.2206 15.7581 16.9393 16.0394C16.658 16.3207 16.5 16.7022 16.5 17.1C16.5 17.4979 16.658 17.8794 16.9393 18.1607C17.2206 18.442 17.6022 18.6 18 18.6H21V15.6H18Z" fill="#F5F5F5"/>
<path d="M4.5 20.1C3.30653 20.1 2.16193 20.5741 1.31802 21.4181C0.474106 22.262 0 23.4066 0 24.6V36.6C0 37.7935 0.474106 38.9381 1.31802 39.782C2.16193 40.6259 3.30653 41.1 4.5 41.1H10.5V20.1H4.5Z" fill="#F9A825"/>
</svg>
