<svg width="46" height="40" viewBox="0 0 46 40" fill="none" xmlns="http://www.w3.org/2000/svg">
<path d="M40.8757 7H40.2094L37.4632 1.41C37.3292 1.13651 37.121 0.906182 36.8624 0.745283C36.6038 0.584385 36.3052 0.499394 36.0007 0.500004C35.7023 0.499383 35.4095 0.580937 35.1544 0.735723C34.8993 0.890509 34.6917 1.11255 34.5544 1.3775L31.6619 7H5.12568C3.80821 7.02987 2.55608 7.57981 1.6427 8.52973C0.729311 9.47965 0.228882 10.7524 0.250684 12.07V34.43C0.228882 35.7476 0.729311 37.0204 1.6427 37.9703C2.55608 38.9202 3.80821 39.4701 5.12568 39.5H40.8757C42.1932 39.4701 43.4453 38.9202 44.3587 37.9703C45.2721 37.0204 45.7725 35.7476 45.7507 34.43V12.07C45.7725 10.7524 45.2721 9.47965 44.3587 8.52973C43.4453 7.57981 42.1932 7.02987 40.8757 7Z" fill="#FFA000"/>
<path d="M35.611 24.6962C36.4931 24.4652 37.2928 23.9914 37.9191 23.3286C38.5455 22.6658 38.9734 21.8406 39.1542 20.9468C39.335 20.053 39.2614 19.1264 38.9419 18.2723C38.6225 17.4182 38.0698 16.6708 37.3468 16.1151C36.6238 15.5594 35.7594 15.2176 34.8518 15.1286C33.9443 15.0395 33.0299 15.2069 32.2127 15.6115C31.3955 16.0162 30.7082 16.6419 30.2288 17.4177C29.7495 18.1934 29.4973 19.0881 29.501 20C29.5053 20.7263 29.6718 21.4425 29.9885 22.0962C28.8759 21.8214 27.7376 21.6634 26.5922 21.625C27.2323 20.9278 27.6555 20.0593 27.8103 19.1256C27.9651 18.1919 27.8448 17.2333 27.464 16.3669C27.0832 15.5004 26.4584 14.7635 25.6659 14.2461C24.8734 13.7287 23.9474 13.4532 23.001 13.4532C22.0545 13.4532 21.1285 13.7287 20.336 14.2461C19.5435 14.7635 18.9187 15.5004 18.5379 16.3669C18.1572 17.2333 18.0368 18.1919 18.1916 19.1256C18.3464 20.0593 18.7697 20.9278 19.4097 21.625C18.2655 21.6528 17.1272 21.7998 16.0135 22.0637C16.3254 21.4199 16.4919 20.7153 16.501 20C16.5047 19.0881 16.2525 18.1934 15.7731 17.4177C15.2938 16.6419 14.6065 16.0162 13.7892 15.6115C12.972 15.2069 12.0577 15.0395 11.1501 15.1286C10.2426 15.2176 9.37818 15.5594 8.65517 16.1151C7.93215 16.6708 7.3795 17.4182 7.06001 18.2723C6.74051 19.1264 6.66699 20.053 6.84779 20.9468C7.02859 21.8406 7.45647 22.6658 8.0828 23.3286C8.70914 23.9914 9.50881 24.4652 10.391 24.6962C9.31164 25.4547 8.42175 26.4519 7.79044 27.6102C7.15914 28.7685 6.80344 30.0568 6.75098 31.375C6.75098 31.806 6.92218 32.2193 7.22693 32.524C7.53167 32.8288 7.945 33 8.37598 33C8.80695 33 9.22028 32.8288 9.52502 32.524C9.82977 32.2193 10.001 31.806 10.001 31.375C10.001 27.8487 14.616 24.875 20.076 24.875H25.926C31.386 24.875 36.001 27.8487 36.001 31.375C36.001 31.806 36.1722 32.2193 36.4769 32.524C36.7817 32.8288 37.195 33 37.626 33C38.057 33 38.4703 32.8288 38.775 32.524C39.0798 32.2193 39.251 31.806 39.251 31.375C39.1985 30.0568 38.8428 28.7685 38.2115 27.6102C37.5802 26.4519 36.6903 25.4547 35.611 24.6962ZM34.376 18.375C34.6974 18.375 35.0115 18.4703 35.2788 18.6489C35.546 18.8274 35.7543 19.0812 35.8773 19.3781C36.0003 19.6751 36.0325 20.0018 35.9698 20.317C35.9071 20.6322 35.7523 20.9218 35.525 21.149C35.2978 21.3763 35.0082 21.5311 34.693 21.5938C34.3778 21.6565 34.051 21.6243 33.7541 21.5013C33.4572 21.3783 33.2034 21.17 33.0248 20.9028C32.8463 20.6356 32.751 20.3214 32.751 20C32.751 19.569 32.9222 19.1557 33.2269 18.8509C33.5317 18.5462 33.945 18.375 34.376 18.375ZM11.626 18.375C11.9474 18.375 12.2615 18.4703 12.5288 18.6489C12.796 18.8274 13.0043 19.0812 13.1273 19.3781C13.2503 19.6751 13.2825 20.0018 13.2198 20.317C13.1571 20.6322 13.0023 20.9218 12.775 21.149C12.5478 21.3763 12.2582 21.5311 11.943 21.5938C11.6278 21.6565 11.301 21.6243 11.0041 21.5013C10.7072 21.3783 10.4534 21.17 10.2748 20.9028C10.0963 20.6356 10.001 20.3214 10.001 20C10.001 19.569 10.1722 19.1557 10.4769 18.8509C10.7817 18.5462 11.195 18.375 11.626 18.375ZM23.001 16.75C23.3224 16.75 23.6365 16.8453 23.9038 17.0239C24.171 17.2024 24.3793 17.4562 24.5023 17.7531C24.6253 18.0501 24.6575 18.3768 24.5948 18.692C24.5321 19.0072 24.3773 19.2968 24.15 19.524C23.9228 19.7513 23.6332 19.9061 23.318 19.9688C23.0028 20.0315 22.676 19.9993 22.3791 19.8763C22.0822 19.7533 21.8284 19.545 21.6498 19.2778C21.4713 19.0106 21.376 18.6964 21.376 18.375C21.376 17.944 21.5472 17.5307 21.8519 17.2259C22.1567 16.9212 22.57 16.75 23.001 16.75Z" fill="#1A237E"/>
<path d="M5.12568 7C3.80821 7.02987 2.55608 7.5798 1.6427 8.52972C0.729311 9.47964 0.228882 10.7524 0.250684 12.07V34.43C0.228882 35.7476 0.729311 37.0204 1.6427 37.9703C2.55608 38.9202 3.80821 39.4701 5.12568 39.5H23.0007V7H5.12568Z" fill="#FFB300"/>
<path d="M21.376 18.375C21.376 17.944 21.5472 17.5307 21.8519 17.226C22.1567 16.9212 22.57 16.75 23.001 16.75V13.5C22.0635 13.5081 21.1482 13.7864 20.3649 14.3014C19.5815 14.8165 18.9633 15.5465 18.5843 16.404C18.2053 17.2615 18.0816 18.2101 18.228 19.1361C18.3744 20.0621 18.7847 20.9263 19.4097 21.625C18.2655 21.6528 17.1272 21.7998 16.0135 22.0638C16.3254 21.4199 16.4919 20.7154 16.501 20C16.5047 19.0881 16.2525 18.1934 15.7731 17.4177C15.2938 16.6419 14.6065 16.0162 13.7892 15.6115C12.972 15.2069 12.0577 15.0396 11.1501 15.1286C10.2426 15.2176 9.37818 15.5594 8.65517 16.1151C7.93215 16.6708 7.3795 17.4182 7.06001 18.2723C6.74051 19.1264 6.66699 20.053 6.84779 20.9468C7.02859 21.8406 7.45647 22.6658 8.0828 23.3286C8.70914 23.9914 9.50881 24.4652 10.391 24.6962C9.31164 25.4547 8.42175 26.4519 7.79044 27.6102C7.15914 28.7686 6.80344 30.0569 6.75098 31.375C6.75098 31.806 6.92218 32.2193 7.22693 32.524C7.53167 32.8288 7.945 33 8.37598 33C8.80695 33 9.22028 32.8288 9.52502 32.524C9.82977 32.2193 10.001 31.806 10.001 31.375C10.001 27.8488 14.616 24.875 20.076 24.875H23.001V20C22.57 20 22.1567 19.8288 21.8519 19.524C21.5472 19.2193 21.376 18.806 21.376 18.375ZM11.626 21.625C11.3046 21.625 10.9904 21.5297 10.7232 21.3511C10.4559 21.1726 10.2477 20.9188 10.1247 20.6219C10.0017 20.3249 9.9695 19.9982 10.0322 19.683C10.0949 19.3678 10.2497 19.0782 10.4769 18.851C10.7042 18.6237 10.9937 18.4689 11.309 18.4062C11.6242 18.3435 11.9509 18.3757 12.2478 18.4987C12.5448 18.6217 12.7986 18.83 12.9771 19.0972C13.1557 19.3644 13.251 19.6786 13.251 20C13.251 20.431 13.0798 20.8443 12.775 21.149C12.4703 21.4538 12.057 21.625 11.626 21.625Z" fill="#303F9F"/>
</svg>
